<?xml version="1.0" encoding="UTF-8" standalone="no"?>
<!-- Created with Inkscape (http://www.inkscape.org/) -->

<svg
   xmlns:dc="http://purl.org/dc/elements/1.1/"
   xmlns:cc="http://creativecommons.org/ns#"
   xmlns:rdf="http://www.w3.org/1999/02/22-rdf-syntax-ns#"
   xmlns:svg="http://www.w3.org/2000/svg"
   xmlns="http://www.w3.org/2000/svg"
   xmlns:sodipodi="http://sodipodi.sourceforge.net/DTD/sodipodi-0.dtd"
   xmlns:inkscape="http://www.inkscape.org/namespaces/inkscape"
   width="58.648941mm"
   height="31.537161mm"
   viewBox="0 0 58.648941 31.537161"
   version="1.1"
   id="svg1031"
   inkscape:version="0.92.2 (5c3e80d, 2017-08-06)"
   sodipodi:docname="logo.svg">
  <defs
     id="defs1025" />
  <sodipodi:namedview
     id="base"
     pagecolor="#ffffff"
     bordercolor="#666666"
     borderopacity="1.0"
     inkscape:pageopacity="0.0"
     inkscape:pageshadow="2"
     inkscape:zoom="1.979899"
     inkscape:cx="31.459081"
     inkscape:cy="-69.053215"
     inkscape:document-units="mm"
     inkscape:current-layer="g1586"
     showgrid="false"
     fit-margin-top="0"
     fit-margin-left="0"
     fit-margin-right="0"
     fit-margin-bottom="0"
     inkscape:window-width="1920"
     inkscape:window-height="1016"
     inkscape:window-x="0"
     inkscape:window-y="27"
     inkscape:window-maximized="1" />
  <metadata
     id="metadata1028">
    <rdf:RDF>
      <cc:Work
         rdf:about="">
        <dc:format>image/svg+xml</dc:format>
        <dc:type
           rdf:resource="http://purl.org/dc/dcmitype/StillImage" />
        <dc:title></dc:title>
      </cc:Work>
    </rdf:RDF>
  </metadata>
  <g
     inkscape:label="Layer 1"
     inkscape:groupmode="layer"
     id="layer1"
     transform="translate(-85.186259,-32.613722)">
    <g
       id="g1586"
       transform="translate(4.5,-2.9999916)">
      <path
         inkscape:connector-curvature="0"
         id="path128"
         style="fill:#deefff;fill-opacity:1;fill-rule:nonzero;stroke:none;stroke-width:0.03527778"
         d="m 100.80902,47.412696 c 0,-0.551392 0.0434,-1.095022 0.12242,-1.627011 L 85.186259,38.613713 c 0,0 0.227894,1.364897 0.855133,3.40113 0.09349,0.303036 6.105172,2.943578 6.105172,2.943578 0,0 -5.706533,-1.704622 -5.590822,-1.39065 0.280458,0.764822 0.723547,1.894769 1.104547,2.736144 0.07796,0.172156 4.83235,1.533878 4.83235,1.533878 0,0 -4.405136,-0.6223 -4.306358,-0.424392 0.369711,0.744009 0.78105,1.500717 1.237897,2.253545 0.08608,0.141464 3.672769,0.847725 3.672769,0.847725 0,0 -3.177822,-0.06061 -3.057877,0.119909 0.473075,0.712999 0.989894,1.416474 1.552222,2.098075 0.09984,0.12125 2.780241,0.260985 2.780241,0.260985 0,0 -2.262011,0.347134 -2.15265,0.46923 0.511175,0.569666 1.056923,1.118976 1.640064,1.639323 0.185209,0.16577 2.665589,0.238795 2.665589,0.238795 0,0 -1.456619,0.754627 -1.253772,0.908827 0.685447,0.523098 0.801864,0.614856 1.580445,1.047291 0.27305,0.15173 1.637241,-0.511105 1.637241,-0.511105 0,0 -0.147461,1.291237 0,1.358195 0.09419,0.04339 0.188736,0.08611 0.282222,0.128693 0.471312,0.215547 0.636764,0.290795 1.076325,0.498863 0.371473,0.176389 1.870783,-0.65472 1.870783,-0.65472 0,0 0.0339,1.574412 0.29139,1.704234 3.40572,1.705751 5.69278,3.128821 7.1942,4.195974 v -5.735532 c -4.78684,-1.289014 -8.39435,-5.720926 -8.39435,-10.869012" />
      <path
         inkscape:connector-curvature="0"
         id="path130"
         style="fill:#deefff;fill-opacity:1;fill-rule:nonzero;stroke:none;stroke-width:0.03527778"
         d="m 119.21208,47.546331 c 0,-0.551392 -0.0434,-1.095022 -0.12241,-1.627011 l 15.74553,-7.171972 c 0,0 -0.22825,1.364897 -0.85514,3.40113 -0.0938,0.303036 -6.10552,2.943578 -6.10552,2.943578 0,0 5.70653,-1.704622 5.59082,-1.39065 -0.28046,0.764822 -0.72355,1.894769 -1.10455,2.736144 -0.078,0.172156 -4.83199,1.533878 -4.83199,1.533878 0,0 4.40478,-0.6223 4.30636,-0.424392 -0.37007,0.744009 -0.78141,1.500717 -1.23825,2.253545 -0.0861,0.141464 -3.67242,0.847725 -3.67242,0.847725 0,0 3.17782,-0.06061 3.05788,0.119909 -0.47343,0.712999 -0.99025,1.416474 -1.55258,2.098075 -0.0998,0.12125 -2.78024,0.260985 -2.78024,0.260985 0,0 2.26236,0.347134 2.15265,0.46923 -0.51118,0.569666 -1.05692,1.118976 -1.63971,1.639323 -0.18556,0.16577 -2.66594,0.238795 -2.66594,0.238795 0,0 1.45662,0.754627 1.25412,0.908827 -0.6858,0.523098 -0.80221,0.614856 -1.5808,1.047291 -0.27269,0.15173 -1.63724,-0.511105 -1.63724,-0.511105 0,0 0.14746,1.291237 0,1.358195 -0.0942,0.04339 -0.18873,0.08611 -0.28222,0.128693 -0.47131,0.215547 -0.63676,0.290795 -1.07633,0.498863 -0.37147,0.176389 -1.87077,-0.65472 -1.87077,-0.65472 0,0 -0.0339,1.574412 -0.2914,1.704234 -3.40572,1.705751 -5.69278,3.128821 -7.1942,4.195974 v -5.735532 c 4.78685,-1.289014 8.39435,-5.720926 8.39435,-10.869012" />
    </g>
  </g>
</svg>
